<svg id="arrow" xmlns="http://www.w3.org/2000/svg" xmlns:xlink="http://www.w3.org/1999/xlink" width="42.311" height="215.139" viewBox="0 0 42.311 215.139">
<defs>
<clipPath id="longarrow-clip-path">
<rect id="Rectangle_88" data-name="Rectangle 88" width="42.311" height="215.139" fill="#193827" stroke="#193828" stroke-width="1">
</rect>
</clipPath>
</defs>
<g id="Group_186" data-name="Group 186" clip-path="url(#longarrow-clip-path)">
<path id="Path_498" data-name="Path 498" d="M20.8,0l.742.551.373,204.911,2.436-5.541c3.143-5.369,9.568-9.776,15.892-10.079.482-.023,2.25-.346,2.058.571-1.98.664-4.074.731-6.1,1.327-8.714,2.568-13.043,10.588-14.248,19.157-.122.875.408,4.515-.966,4.226-.89-.188-.487-3.321-.608-4.223-1.153-8.591-5.522-16.589-14.245-19.16-1.788-.527-3.61-.578-5.292-1.029-.661-.177-.959.107-.8-.849,7.337-.431,14.212,3.946,17.944,10.06l2.81,6.286Z" transform="translate(0)" fill="#193827" stroke="#193828" stroke-width="1">
</path>
</g>
</svg>

